<?xml version="1.0" standalone="no"?>
<!DOCTYPE svg PUBLIC "-//W3C//DTD SVG 20010904//EN"
 "http://www.w3.org/TR/2001/REC-SVG-20010904/DTD/svg10.dtd">
<svg version="1.0" xmlns="http://www.w3.org/2000/svg"
 width="296.000000pt" height="296.000000pt" viewBox="0 0 296.000000 296.000000"
 preserveAspectRatio="xMidYMid meet">
<metadata>
Created by potrace 1.14, written by Peter Selinger 2001-2017
</metadata>
<g transform="translate(0.000000,296.000000) scale(0.100000,-0.100000)"
fill="#000000" stroke="none">
<path d="M1170 2945 c-329 -66 -540 -304 -557 -630 -5 -82 -2 -116 16 -185 34
-137 82 -222 176 -315 143 -141 225 -176 630 -265 362 -80 383 -88 468 -179
125 -134 150 -321 66 -490 -79 -158 -252 -227 -514 -203 -349 33 -577 179
-659 423 -14 41 -28 109 -32 152 -8 88 -16 97 -83 97 -74 0 -71 15 -71 -419 0
-288 3 -390 12 -399 7 -7 27 -12 44 -12 28 0 44 13 120 95 49 52 91 95 95 95
4 0 36 -18 72 -40 115 -69 245 -113 419 -140 116 -19 363 -8 458 19 90 27 205
87 272 143 94 78 176 218 214 363 24 95 25 285 0 375 -57 212 -206 389 -401
481 -80 37 -161 59 -515 138 -226 51 -305 86 -378 166 -71 77 -95 146 -90 250
9 166 100 279 265 328 175 52 419 17 578 -84 151 -95 245 -248 290 -471 9 -45
22 -89 27 -95 15 -19 103 -16 122 3 14 13 16 63 16 395 0 243 -4 387 -10 400
-15 27 -72 25 -103 -3 -13 -13 -54 -58 -91 -100 l-68 -77 -51 39 c-81 60 -212
118 -318 140 -111 23 -317 26 -419 5z"/>
<path d="M400 70 l0 -70 1080 0 1080 0 0 70 0 70 -1080 0 -1080 0 0 -70z"/>
</g>
</svg>
